<svg width="140" height="154" viewBox="0 0 140 154" fill="none" xmlns="http://www.w3.org/2000/svg">
<g style="mix-blend-mode:hard-light">
<path d="M71.2263 73.5042L134.095 102.89L114.037 128.123L71.2263 73.5042Z" fill="black" fill-opacity="0.96"/>
</g>
<g style="mix-blend-mode:hard-light">
<path d="M100.96 46.7503C109.499 70.0899 97.5018 95.9332 74.1622 104.473C50.8227 113.013 24.9794 101.015 16.4396 77.6756C7.89982 54.336 19.8974 28.4927 43.237 19.953C66.5765 11.4132 92.4198 23.4108 100.96 46.7503Z" fill="black" fill-opacity="0.96"/>
</g>
<g style="mix-blend-mode:hard-light">
<path d="M96.3325 48.9131C103.792 69.2997 93.3122 91.8732 72.9256 99.3325C52.5391 106.792 29.9655 96.3122 22.5063 75.9256C15.047 55.5391 25.5266 32.9656 45.9131 25.5063C66.2997 18.047 88.8732 28.5266 96.3325 48.9131Z" fill="white"/>
</g>
</svg>
